# xmcd
#
# Track frame offsets:
# 150
# 17636
# 30796
# 54793
# 72578
# 86614
# 101501
# 117506
# 131719
# 147202
# 159181
# 172569
# 183776
#
# Disc length: 2693 seconds
#
#
# Revision: 2
# Processed by: cddbd v1.5.2PL0 Copyright (c) Steve Scherf et al.
# Submitted via: FreeRIP 2.30 
#
DISCID=960a830d
DTITLE=Omara Portuondo - Lágrimas Negras CD1
DYEAR=2005
DGENRE=Salsa
TTITLE0=Increíble
TTITLE1=Quiero Hablar Contigo
TTITLE2=Te Quería
TTITLE3=Libre de Pecado
TTITLE4=Campanitas de Cristal
TTITLE5=Nosotros
TTITLE6=Cómo es posible
TTITLE7=Vieja Luna
TTITLE8=Confidencia de Amor
TTITLE9=No Te Quejes
TTITLE10=Le Dije A Una Rosa
TTITLE11=Y Tú Qué Has Hecho
TTITLE12=La Última Noche
EXTD=YEAR: 2005
EXTT0=
EXTT1=
EXTT2=
EXTT3=
EXTT4=
EXTT5=
EXTT6=
EXTT7=
EXTT8=
EXTT9=
EXTT10=
EXTT11=
EXTT12=
PLAYORDER=
